HIERARCHY
ROOT Hips
{
    OFFSET   0.000000   0.000000   0.000000
    CHANNELS 6 Xposition Yposition Zposition Zrotation Xrotation Yrotation
    JOINT Chest
    {
        OFFSET   0.000000   8.007240   0.000000
        CHANNELS 3 Zrotation Xrotation Yrotation
        JOINT Chest2
        {
            OFFSET   0.000000  22.077100   0.000000
            CHANNELS 3 Zrotation Xrotation Yrotation
            JOINT Neck
            {
                OFFSET   0.000000  23.254800   0.000000
                CHANNELS 3 Zrotation Xrotation Yrotation
                JOINT Head
                {
                    OFFSET   0.000000  14.370000   1.956600
                    CHANNELS 3 Zrotation Xrotation Yrotation
                    End Site
                    {
                        OFFSET   0.000000  19.566000   0.000000
                    }
                }
            }
            JOINT LeftCollar
            {
                OFFSET   3.911900  19.017000  -0.467064
                CHANNELS 3 Zrotation Xrotation Yrotation
                JOINT LeftShoulder
                {
                    OFFSET  10.383700   0.000000   0.000000
                    CHANNELS 3 Zrotation Xrotation Yrotation
                    JOINT LeftElbow
                    {
                        OFFSET  26.662100   0.001476   0.000517
                        CHANNELS 3 Zrotation Xrotation Yrotation
                        JOINT LeftWrist
                        {
                            OFFSET  28.869000  -0.000025  -0.000106
                            CHANNELS 3 Zrotation Xrotation Yrotation
                            JOINT LeftFinger0
                            {
                                OFFSET   2.044660  -2.323460   3.252850
                                CHANNELS 3 Zrotation Xrotation Yrotation
                                JOINT LeftFinger01
                                {
                                    OFFSET   3.088130   0.000000   0.000000
                                    CHANNELS 3 Zrotation Xrotation Yrotation
                                    JOINT LeftFinger02
                                    {
                                        OFFSET   2.639460   0.000000   0.000000
                                        CHANNELS 3 Zrotation Xrotation Yrotation
                                        End Site
                                        {
                                            OFFSET   2.582190   0.000000   0.000000
                                        }
                                    }
                                }
                            }
                            JOINT LeftFinger1
                            {
                                OFFSET   8.364480   0.000000   3.252850
                                CHANNELS 3 Zrotation Xrotation Yrotation
                                JOINT LeftFinger11
                                {
                                    OFFSET   4.646930   0.000000   0.000000
                                    CHANNELS 3 Zrotation Xrotation Yrotation
                                    JOINT LeftFinger12
                                    {
                                        OFFSET   2.323460   0.000000   0.000000
                                        CHANNELS 3 Zrotation Xrotation Yrotation
                                        End Site
                                        {
                                            OFFSET   2.273050   0.000000   0.000000
                                        }
                                    }
                                }
                            }
                            JOINT LeftFinger2
                            {
                                OFFSET   8.364490   0.000015   1.078090
                                CHANNELS 3 Zrotation Xrotation Yrotation
                                JOINT LeftFinger21
                                {
                                    OFFSET   5.111620   0.000000   0.000000
                                    CHANNELS 3 Zrotation Xrotation Yrotation
                                    JOINT LeftFinger22
                                    {
                                        OFFSET   2.788160   0.000016   0.000000
                                        CHANNELS 3 Zrotation Xrotation Yrotation
                                        End Site
                                        {
                                            OFFSET   2.727660   0.000000   0.000000
                                        }
                                    }
                                }
                            }
                            JOINT LeftFinger3
                            {
                                OFFSET   7.899780   0.000017  -1.078090
                                CHANNELS 3 Zrotation Xrotation Yrotation
                                JOINT LeftFinger31
                                {
                                    OFFSET   4.646930   0.000000   0.000000
                                    CHANNELS 3 Zrotation Xrotation Yrotation
                                    JOINT LeftFinger32
                                    {
                                        OFFSET   2.323470   0.000000   0.000000
                                        CHANNELS 3 Zrotation Xrotation Yrotation
                                        End Site
                                        {
                                            OFFSET   2.273050   0.000000   0.000000
                                        }
                                    }
                                }
                            }
                            JOINT LeftFinger4
                            {
                                OFFSET   7.435090   0.000000  -3.252850
                                CHANNELS 3 Zrotation Xrotation Yrotation
                                JOINT LeftFinger41
                                {
                                    OFFSET   3.717550   0.000000   0.000000
                                    CHANNELS 3 Zrotation Xrotation Yrotation
                                    JOINT LeftFinger42
                                    {
                                        OFFSET   1.858770   0.000000   0.000000
                                        CHANNELS 3 Zrotation Xrotation Yrotation
                                        End Site
                                        {
                                            OFFSET   1.818440   0.000000   0.000000
                                        }
                                    }
                                }
                            }
                        }
                    }
                }
            }
            JOINT RightCollar
            {
                OFFSET  -3.911900  19.017000  -0.467063
                CHANNELS 3 Zrotation Xrotation Yrotation
                JOINT RightShoulder
                {
                    OFFSET -10.383700   0.000019   0.000000
                    CHANNELS 3 Zrotation Xrotation Yrotation
                    JOINT RightElbow
                    {
                        OFFSET -26.662100   0.001175   0.000102
                        CHANNELS 3 Zrotation Xrotation Yrotation
                        JOINT RightWrist
                        {
                            OFFSET -28.869000   0.000016  -0.000079
                            CHANNELS 3 Zrotation Xrotation Yrotation
                            JOINT RightFinger0
                            {
                                OFFSET  -2.044660  -2.323490   3.252850
                                CHANNELS 3 Zrotation Xrotation Yrotation
                                JOINT RightFinger01
                                {
                                    OFFSET  -3.088140   0.000000   0.000000
                                    CHANNELS 3 Zrotation Xrotation Yrotation
                                    JOINT RightFinger02
                                    {
                                        OFFSET  -2.639460   0.000000   0.000000
                                        CHANNELS 3 Zrotation Xrotation Yrotation
                                        End Site
                                        {
                                            OFFSET  -2.582190   0.000000   0.000000
                                        }
                                    }
                                }
                            }
                            JOINT RightFinger1
                            {
                                OFFSET  -8.364480   0.000000   3.252850
                                CHANNELS 3 Zrotation Xrotation Yrotation
                                JOINT RightFinger11
                                {
                                    OFFSET  -4.646930   0.000000   0.000000
                                    CHANNELS 3 Zrotation Xrotation Yrotation
                                    JOINT RightFinger12
                                    {
                                        OFFSET  -2.323470   0.000000   0.000000
                                        CHANNELS 3 Zrotation Xrotation Yrotation
                                        End Site
                                        {
                                            OFFSET  -2.273050   0.000000   0.000000
                                        }
                                    }
                                }
                            }
                            JOINT RightFinger2
                            {
                                OFFSET  -8.364480   0.000000   1.078090
                                CHANNELS 3 Zrotation Xrotation Yrotation
                                JOINT RightFinger21
                                {
                                    OFFSET  -5.111620   0.000000   0.000000
                                    CHANNELS 3 Zrotation Xrotation Yrotation
                                    JOINT RightFinger22
                                    {
                                        OFFSET  -2.788160   0.000000   0.000000
                                        CHANNELS 3 Zrotation Xrotation Yrotation
                                        End Site
                                        {
                                            OFFSET  -2.727660   0.000000   0.000000
                                        }
                                    }
                                }
                            }
                            JOINT RightFinger3
                            {
                                OFFSET  -7.899780   0.000000  -1.078090
                                CHANNELS 3 Zrotation Xrotation Yrotation
                                JOINT RightFinger31
                                {
                                    OFFSET  -4.646930   0.000000   0.000000
                                    CHANNELS 3 Zrotation Xrotation Yrotation
                                    JOINT RightFinger32
                                    {
                                        OFFSET  -2.323470   0.000000   0.000000
                                        CHANNELS 3 Zrotation Xrotation Yrotation
                                        End Site
                                        {
                                            OFFSET  -2.273050   0.000000   0.000000
                                        }
                                    }
                                }
                            }
                            JOINT RightFinger4
                            {
                                OFFSET  -7.435090   0.000000  -3.252850
                                CHANNELS 3 Zrotation Xrotation Yrotation
                                JOINT RightFinger41
                                {
                                    OFFSET  -3.717550   0.000000   0.000000
                                    CHANNELS 3 Zrotation Xrotation Yrotation
                                    JOINT RightFinger42
                                    {
                                        OFFSET  -1.858770   0.000000   0.000000
                                        CHANNELS 3 Zrotation Xrotation Yrotation
                                        End Site
                                        {
                                            OFFSET  -1.818440   0.000000   0.000000
                                        }
                                    }
                                }
                            }
                        }
                    }
                }
            }
        }
    }
    JOINT LeftHip
    {
        OFFSET   9.783040   0.000000   0.000000
        CHANNELS 3 Zrotation Xrotation Yrotation
        JOINT LeftKnee
        {
            OFFSET   0.000032 -41.789100  -0.002222
            CHANNELS 3 Zrotation Xrotation Yrotation
            JOINT LeftAnkle
            {
                OFFSET   0.000087 -41.133200  -0.000135
                CHANNELS 3 Zrotation Xrotation Yrotation
                JOINT LeftToe
                {
                    OFFSET   0.000000  -6.358960  14.674500
                    CHANNELS 3 Zrotation Xrotation Yrotation
                    End Site
                    {
                        OFFSET   0.000000   0.000000   3.913200
                    }
                }
            }
        }
    }
    JOINT RightHip
    {
        OFFSET  -9.783040   0.000000   0.000000
        CHANNELS 3 Zrotation Xrotation Yrotation
        JOINT RightKnee
        {
            OFFSET   0.000047 -41.789100  -0.000896
            CHANNELS 3 Zrotation Xrotation Yrotation
            JOINT RightAnkle
            {
                OFFSET  -0.000117 -41.133300  -0.000248
                CHANNELS 3 Zrotation Xrotation Yrotation
                JOINT RightToe
                {
                    OFFSET   0.000000  -6.358970  14.674500
                    CHANNELS 3 Zrotation Xrotation Yrotation
                    End Site
                    {
                        OFFSET   0.000000   0.000000   3.913200
                    }
                }
            }
        }
    }
}
MOTION
Frames: 6
Frame Time:   0.016667
 -1.165560  89.603300  -0.137390  -0.578000  -9.364920   3.628890   2.910270   8.185590   0.501003   5.838400  16.386100   0.585483   0.011535  -0.742271  -0.006284   0.019876  -1.505870  -2.130750 -11.568400  -1.408990  -1.856970 -65.301100  21.768700 -15.558100  -2.210310  -8.838230  -7.593860   1.415000  -7.900940   2.478800  46.132400  39.262600 -68.939700 -28.113900  -0.010033   0.006921  -9.056940  -0.007868  -0.000057 -33.289400   2.385280  -3.626840 -27.298600   0.000738  -0.018008 -19.109000   0.012851   0.001712 -28.252700  -2.587380   4.801880 -34.751400   0.000357  -0.024541 -23.144400   0.017926   0.000524 -27.547100  -4.102840   7.810200 -30.940900   0.001178  -0.025353 -20.606600   0.019332   0.001901 -31.932500  -4.689800   7.473840 -48.358500  -0.008297   0.000564 -32.206800  -0.000249  -0.000155  10.667200  -4.885160  13.406800  53.229800   3.755720  41.285000 -20.388000 -16.549700  39.904100 -11.965000 -63.865700  19.143700 -18.124100  26.749600  55.767400  70.597000   0.004717  -0.013156  40.357600   0.000345  -0.003349  78.709700   6.021630   1.167340  64.447100   0.001400  -0.018181  48.335300  -0.013368  -0.005419  77.792500   0.019287   0.031427  77.791600   0.017631   0.028825  58.343700   0.025408   0.000150  81.013300  -4.920950  -0.803236  81.046500  -0.020253  -0.021876  60.784900  -0.021660  -0.000643  88.984600  -9.991140  -0.176299 110.000000  -0.000065  -0.000000  80.000000  -0.006854   0.005800   3.006840  10.974300   2.657830   1.163800   0.097470  10.601300  -4.945710  -1.511540   1.765460   0.000000   0.000000  -0.000000   0.130947   9.009400  -3.690690   1.297380   2.706120 -13.703100  -2.198330  -2.584950  -8.044190   0.000000   0.000000   0.000000
 -1.156620  89.603500  -0.115625  -0.600315  -9.337810   3.533220   2.879870   8.133250   0.491287   5.776780  16.280900   0.574839  -0.066580  -0.837316  -0.006119  -0.108993  -1.698290  -1.804500 -11.577300  -1.397650  -1.872390 -65.357200  21.619600 -15.386400  -2.194340  -8.709490  -7.587210   1.422180  -7.897300   2.473330  46.113400  39.254500 -68.934200 -28.128500  -0.014105   0.009132  -9.064220  -0.012024  -0.000029 -33.311500   2.379260  -3.615100 -27.316200   0.000751  -0.018141 -19.121300   0.012760   0.001774 -28.255600  -2.594520   4.814440 -34.785200   0.000466  -0.026081 -23.166900   0.018459   0.000521 -27.551500  -4.113750   7.829500 -30.969900   0.001392  -0.027581 -20.626000   0.020318   0.001888 -31.953000  -4.704400   7.490880 -48.391700  -0.008304   0.000517 -32.228900  -0.000201  -0.000132  10.571800  -4.781740  13.256900  53.261400   3.648230  41.204500 -19.247300 -15.464900  37.300200 -13.702200 -64.312700  17.885000 -18.141700  26.114400  55.578800  70.409300   0.003657  -0.004477  40.232600   0.000029  -0.002730  78.212800   6.155880   1.247890  64.045500   0.001320  -0.015831  48.034100  -0.011074  -0.004761  77.019600  -0.075661  -0.009608  77.021300   0.006962   0.013576  57.766000   0.010065   0.001161  80.959500  -4.923590  -0.798313  80.993000  -0.015298  -0.018106  60.744700  -0.017363  -0.000670  88.984600  -9.991140  -0.176293 110.000000  -0.000031  -0.000000  80.000000  -0.006851   0.005791   3.009670  10.983800   2.664760   1.156120   0.082667  10.646400  -4.932550  -1.547000   1.805070   0.000000   0.000000  -0.000000   0.130158   8.987870  -3.658040   1.294010   2.694660 -13.696800  -2.194100  -2.579960  -7.988060   0.000000   0.000000   0.000000
 -1.147940  89.603800  -0.095006  -0.628648  -9.312110   3.420740   2.849590   8.080920   0.485586   5.715990  16.176000   0.568650  -0.143110  -0.932395  -0.005961  -0.235131  -1.890810  -1.477900 -11.585500  -1.381210  -1.901990 -65.405700  21.484900 -15.218600  -2.182930  -8.602700  -7.581050   1.426550  -7.893660   2.467870  46.083000  39.238900 -68.918500 -28.149400  -0.015949   0.010202  -9.074680  -0.014187   0.000000 -33.332700   2.368260  -3.595140 -27.333000   0.000792  -0.018160 -19.133100   0.012668   0.001837 -28.258400  -2.601650   4.826990 -34.818200   0.000815  -0.026560 -23.188900   0.018790   0.000512 -27.554300  -4.124660   7.848810 -30.998900   0.002078  -0.028197 -20.645300   0.020734   0.001874 -31.973500  -4.718990   7.507920 -48.424900  -0.008309   0.000469 -32.251000  -0.000147  -0.000109  10.494100  -4.704160  13.121800  53.204400   3.558110  41.136500 -17.910500 -14.449000  34.561000 -14.631300 -64.843300  17.581500 -18.215200  25.412000  55.521200  70.073300  -0.003768   0.004201  40.008800  -0.002185   0.001602  77.990000   6.211150   1.308990  63.868200   0.000757  -0.003960  47.901100  -0.003711  -0.000152  76.901200  -0.341136  -0.068461  76.905500  -0.004283   0.008019  57.679200   0.003613   0.006138  80.905500  -4.935250  -0.793402  80.939500  -0.003377  -0.002959  60.704600  -0.003074  -0.000674  88.984600  -9.991140  -0.176288 110.000000   0.000000   0.000000  80.000000  -0.006846   0.005782   3.016750  10.999900   2.669750   1.141260   0.056174  10.705200  -4.913800  -1.574260   1.848670  -0.000000   0.000000  -0.000000   0.131685   8.961160  -3.621750   1.290200   2.690630 -13.677000  -2.189630  -2.576180  -7.931160  -0.000000   0.000000  -0.000000
 -1.141260  89.604200  -0.077325  -0.660251  -9.285570   3.289300   2.819600   8.029720   0.492526   5.654010  16.074000   0.587933  -0.216704  -1.026730  -0.005754  -0.355993  -2.082220  -1.176810 -11.590800  -1.367910  -1.943150 -65.432000  21.415200 -15.082700  -2.177360  -8.572090  -7.542920   1.412080  -7.858800   2.471760  46.060200  39.227000 -68.898000 -28.160200  -0.008781   0.006088  -9.080060  -0.008795  -0.000037 -33.333600   2.354380  -3.573950 -27.332500   0.002105  -0.017291 -19.132800   0.012701   0.001902 -28.258200  -2.601120   4.826070 -34.812000   0.003026  -0.026986 -23.184800   0.019351   0.000493 -27.552600  -4.124140   7.848050 -30.986600   0.004690  -0.028622 -20.637100   0.021281   0.001858 -31.967700  -4.718260   7.507300 -48.415600  -0.008312   0.000420 -32.244800  -0.000071  -0.000088  10.427000  -4.668820  12.986100  53.006700   3.613490  41.016700 -16.498400 -13.689400  31.724900 -14.480100 -65.278600  18.653200 -18.773800  25.683500  55.958100  69.182100  -0.047486   0.004022  39.409200  -0.021759   0.026304  77.461600   6.320050   1.419760  63.447400  -0.001295   0.025285  47.585500   0.012485   0.014557  78.171500  -0.928293  -0.174542  78.202100  -0.027084   0.101313  58.651600   0.051362   0.060919  80.698400  -4.958130  -0.795690  80.732400   0.019529   0.030518  60.549300   0.026981   0.000009  88.961300  -9.991130  -0.183787 110.000000   0.000000   0.000000  80.000000  -0.006842   0.005730   3.026330  11.016700   2.669160   1.124910   0.025155  10.779800  -4.893490  -1.602090   1.898230   0.000000   0.000000   0.000000   0.137731   8.923160  -3.579600   1.283550   2.698010 -13.636200  -2.184200  -2.572960  -7.884250   0.000000   0.000000   0.000000
 -1.135300  89.604600  -0.062392  -0.693800  -9.256910   3.148690   2.788870   7.979580   0.510038   5.587910  15.974500   0.632264  -0.285550  -1.125580  -0.005628  -0.469081  -2.282820  -0.889775 -11.595900  -1.356630  -1.983330 -65.464200  21.364300 -14.972800  -2.169420  -8.563020  -7.480610   1.397500  -7.812090   2.478520  46.043200  39.202700 -68.857500 -28.164600  -0.001614   0.000659  -9.082280  -0.003403  -0.000297 -33.329600   2.345480  -3.560990 -27.329300   0.006151  -0.016422 -19.130500   0.012927   0.001969 -28.256900  -2.597420   4.819650 -34.797000   0.008237  -0.028160 -23.174800   0.021496   0.000466 -27.549100  -4.120480   7.842710 -30.966100   0.010337  -0.029517 -20.623400   0.023185   0.001842 -31.958800  -4.713120   7.502940 -48.402000  -0.008315   0.000371 -32.235700   0.000000  -0.000064  10.394000  -4.661460  12.912200  52.677600   3.795560  40.809800 -15.064300 -13.134200  28.847900 -14.110300 -65.511300  19.608700 -19.381800  25.896000  56.493300  67.841500  -0.116089   0.002763  38.522500  -0.061905   0.047293  76.633900   6.497710   1.589360  62.786400  -0.007407   0.057975  47.089800   0.027193   0.034401  79.441400  -1.344920  -0.245979  79.498700  -0.042383   0.194607  59.624000   0.099111   0.111209  80.115600  -4.993090  -0.811563  80.151100   0.035469   0.069134  60.113300   0.058282   0.004791  88.938000  -9.991120  -0.191286 110.000000   0.000000   0.000000  80.000000  -0.006836   0.005663   3.036670  11.027000   2.664060   1.106050   0.003915  10.865700  -4.872410  -1.631410   1.953170  -0.000000   0.000000  -0.000000   0.143573   8.879560  -3.540250   1.276470   2.708700 -13.581300  -2.177520  -2.568870  -7.839470  -0.000000   0.000000   0.000000
 -1.129550  89.605000  -0.051590  -0.727089  -9.223600   3.004640   2.756570   7.931280   0.537457   5.517870  15.879300   0.694932  -0.346295  -1.233780  -0.007171  -0.568673  -2.502150  -0.618675 -11.603600  -1.351530  -2.009370 -65.516500  21.307900 -14.900200  -2.143970  -8.549970  -7.392400   1.407400  -7.774790   2.485970  46.017800  39.140400 -68.774100 -28.131900  -0.006046  -0.000669  -9.065940  -0.006635  -0.004780 -33.310700   2.363300  -3.590040 -27.315400   0.015955  -0.022060 -19.120300   0.021384   0.002003 -28.256400  -2.570920   4.770910 -34.773500   0.019569  -0.038937 -23.159200   0.032719   0.000430 -27.547700  -4.095890   7.797090 -30.945500   0.022910  -0.039461 -20.609700   0.034209   0.001826 -31.956200  -4.684280   7.459850 -48.394400  -0.008315   0.000320 -32.230700   0.000036  -0.000049  10.426000  -4.710000  12.926200  52.163400   4.155420  40.438700 -13.742400 -12.737900  25.986900 -15.524300 -65.246200  18.122900 -20.348700  25.578900  57.028300  66.184100  -0.200549  -0.057071  37.512700  -0.133160   0.038919  75.375100   6.795850   1.820440  61.779600  -0.021348   0.085350  46.334700   0.031373   0.058010  75.808600  -0.428088   0.165582  75.797400  -0.032099   0.147607  56.860300   0.079679   0.078826  79.045400  -5.059020  -0.938895  79.058800   0.031321   0.107405  59.302600   0.078178   0.021821  89.413100 -10.022400  -0.076834 110.000000   0.000000   0.000000  79.959300  -0.006832   0.005636   3.046080  11.025300   2.642180   1.087230   0.001674  10.963400  -4.852490  -1.666160   2.016360  -0.000000   0.000000  -0.000000   0.144649   8.831810  -3.511120   1.271740   2.715150 -13.511300  -2.168830  -2.562450  -7.793840  -0.000000   0.000000   0.000000
